<?xml version="1.0" standalone="no"?>
<!DOCTYPE svg PUBLIC "-//W3C//DTD SVG 20010904//EN"
 "http://www.w3.org/TR/2001/REC-SVG-20010904/DTD/svg10.dtd">
<svg version="1.0" xmlns="http://www.w3.org/2000/svg"
 width="100.000000pt" height="100.000000pt" viewBox="0 0 100.000000 100.000000"
 preserveAspectRatio="xMidYMid meet">
<metadata>
Created by potrace 1.14, written by Peter Selinger 2001-2017
</metadata>
<g transform="translate(0.000000,100.000000) scale(0.100000,-0.100000)"
fill="#000000" stroke="none">
<path d="M469 848 c-12 -24 -31 -56 -41 -71 -11 -16 -18 -30 -15 -33 2 -3 43
-4 90 -2 l86 3 -42 73 c-22 39 -45 72 -49 72 -4 0 -17 -19 -29 -42z"/>
<path d="M465 630 c-8 -16 -15 -34 -15 -40 0 -7 -7 -26 -15 -43 -7 -18 -32
-79 -54 -137 -22 -58 -43 -113 -47 -123 -6 -16 -2 -18 22 -15 24 2 31 11 45
48 l17 45 80 5 81 5 19 -50 c16 -42 24 -51 47 -53 20 -3 26 0 23 10 -3 7 -31
81 -62 163 -32 83 -63 165 -71 183 -19 41 -49 43 -70 2z m70 -130 c14 -40 22
-76 19 -79 -7 -7 -114 -8 -114 -1 0 21 57 167 62 162 4 -4 19 -41 33 -82z"/>
<path d="M211 397 c-19 -34 -72 -126 -118 -204 -46 -79 -83 -145 -83 -148 0
-3 220 -5 490 -5 270 0 490 2 490 4 0 2 -46 84 -102 182 -57 99 -110 192 -118
208 -14 27 -15 21 -18 -107 l-3 -137 -249 0 -249 0 -3 134 -3 135 -34 -62z"/>
</g>
</svg>
